# xmcd
#
# Track frame offsets:
# 150
# 11537
# 29150
# 45125
# 59837
# 74995
# 93292
# 108347
# 117965
# 133265
# 150818
# 164080
#
# Disc length: 2449 seconds
#
#
# Revision: 2
# Processed by: cddbd v1.5.2PL0 Copyright (c) Steve Scherf et al.
# Submitted via: FreeRIP 2.30 
#
DISCID=a7098f0c
DTITLE=Lisa Ono - Romance Latino Selection
DYEAR=2005
DGENRE=Latin
TTITLE0=Cachito (Oscar-version)
TTITLE1=Vereda Tropical
TTITLE2=Volver A Empezar/Begin The Beguine
TTITLE3=Ceu Cor De Rosa/Indian Summer
TTITLE4=Capullito De Aleli (Oscar-version)
TTITLE5=Solamente Una Vez
TTITLE6=Quien Sera
TTITLE7=Ay Cosita Linda
TTITLE8=Los Marcianos (Un-released)
TTITLE9=Aquellos Ojos Verdes/Green Eyes
TTITLE10=Besame Mucho
TTITLE11=Historia De Un Amor
EXTD=
EXTT0=
EXTT1=
EXTT2=
EXTT3=
EXTT4=
EXTT5=
EXTT6=
EXTT7=
EXTT8=
EXTT9=
EXTT10=
EXTT11=
PLAYORDER=
